<svg width="14" height="14" viewBox="0 0 14 14" fill="none" xmlns="http://www.w3.org/2000/svg">
<path id="&#239;&#138;&#189;" d="M7 0C8.26763 0 9.44551 0.319712 10.5337 0.959135C11.5881 1.57612 12.4239 2.41186 13.0409 3.46635C13.6803 4.55449 14 5.73237 14 7C14 8.26763 13.6803 9.44551 13.0409 10.5337C12.4239 11.5881 11.5881 12.4239 10.5337 13.0409C9.44551 13.6803 8.26763 14 7 14C5.73237 14 4.55449 13.6803 3.46635 13.0409C2.41186 12.4239 1.57612 11.5881 0.959135 10.5337C0.319712 9.44551 0 8.26763 0 7C0 5.73237 0.319712 4.55449 0.959135 3.46635C1.57612 2.41186 2.41186 1.57612 3.46635 0.959135C4.55449 0.319712 5.73237 0 7 0ZM7 1.07692C5.92308 1.07692 4.92468 1.34615 4.00481 1.88462C3.11859 2.41186 2.41186 3.11859 1.88462 4.00481C1.34615 4.92468 1.07692 5.92308 1.07692 7C1.07692 8.07692 1.34615 9.07532 1.88462 9.99519C2.41186 10.8814 3.11859 11.5881 4.00481 12.1154C4.92468 12.6538 5.92308 12.9231 7 12.9231C8.07692 12.9231 9.07532 12.6538 9.99519 12.1154C10.8814 11.5881 11.5881 10.8814 12.1154 9.99519C12.6538 9.07532 12.9231 8.07692 12.9231 7C12.9231 5.92308 12.6538 4.92468 12.1154 4.00481C11.5881 3.11859 10.8814 2.41186 9.99519 1.88462C9.07532 1.34615 8.07692 1.07692 7 1.07692ZM7 2.69231C7.48237 2.69231 7.93109 2.81571 8.34615 3.0625C8.76122 3.29808 9.08654 3.6234 9.32212 4.03846C9.56891 4.45353 9.69231 4.90224 9.69231 5.38462C9.69231 5.77724 9.60817 6.15305 9.4399 6.51202C9.27164 6.85978 9.03606 7.16266 8.73317 7.42067C9.35016 7.73478 9.84375 8.19471 10.2139 8.80048C10.5841 9.39503 10.7692 10.0513 10.7692 10.7692H9.69231C9.69231 10.2756 9.56891 9.82692 9.32212 9.42308C9.08654 9.00801 8.76122 8.68269 8.34615 8.44712C7.94231 8.20032 7.49359 8.07692 7 8.07692C6.50641 8.07692 6.05208 8.20032 5.63702 8.44712C5.23317 8.68269 4.90785 9.00801 4.66106 9.42308C4.42548 9.82692 4.30769 10.2756 4.30769 10.7692H3.23077C3.23077 10.0513 3.41587 9.39503 3.78606 8.80048C4.15625 8.19471 4.64984 7.73478 5.26683 7.42067C4.96394 7.16266 4.72837 6.85978 4.5601 6.51202C4.39183 6.15305 4.30769 5.77724 4.30769 5.38462C4.30769 4.90224 4.42548 4.45353 4.66106 4.03846C4.90785 3.6234 5.23878 3.29808 5.65385 3.0625C6.06891 2.81571 6.51763 2.69231 7 2.69231ZM7 3.76923C6.55128 3.76923 6.16987 3.92628 5.85577 4.24038C5.54167 4.55449 5.38462 4.9359 5.38462 5.38462C5.38462 5.83333 5.54167 6.21474 5.85577 6.52885C6.16987 6.84295 6.55128 7 7 7C7.44872 7 7.83013 6.84295 8.14423 6.52885C8.45833 6.21474 8.61539 5.83333 8.61539 5.38462C8.61539 4.9359 8.45833 4.55449 8.14423 4.24038C7.83013 3.92628 7.44872 3.76923 7 3.76923Z" fill="white"/>
</svg>
